<?xml version="1.0" encoding="utf-8"?>
<!-- Generator: Adobe Illustrator 19.0.0, SVG Export Plug-In . SVG Version: 6.00 Build 0)  -->
<svg version="1.1" id="Layer_1" xmlns="http://www.w3.org/2000/svg" xmlns:xlink="http://www.w3.org/1999/xlink" x="0px" y="0px"
	 viewBox="0 0 653 862.2" style="enable-background:new 0 0 653 862.2;" xml:space="preserve">
<style type="text/css">
	.st0{fill:#FFFFFF;}
</style>
<g id="XMLID_9_">
	<path id="XMLID_7_" class="st0" d="M442.6,732.3v93.6c0,20,15.6,36.4,35.6,36.4h96.3c20,0,36.8-16.3,36.8-36.4v-94.6"/>
	<path id="XMLID_6_" class="st0" d="M41.8,731v94.9c0,20,15.5,36.4,35.6,36.4h96.2c20.1,0,36.9-16.3,36.9-36.4v-93.6"/>
	<path id="XMLID_5_" class="st0" d="M48.7,84.8V43.6C48.7,19.5,68.3,0,92.4,0h468.2c24.1,0,43.6,19.5,43.6,43.6v41.2"/>
	<path id="XMLID_10_" class="st0" d="M601.7,81H51.3C23,81,0,104,0,132.3v550.4C0,711,23,734,51.3,734h550.4
		c28.3,0,51.3-23,51.3-51.3V132.3C653,104,630,81,601.7,81z M121.8,666.3c-26,0-47.2-21.1-47.2-47.2c0-26,21.1-47.2,47.2-47.2
		c26,0,47.2,21.1,47.2,47.2C168.9,645.3,147.8,666.3,121.8,666.3z M531.2,666.3c-26,0-47.2-21.1-47.2-47.2c0-26,21.1-47.2,47.2-47.2
		c26,0,47.2,21.1,47.2,47.2C578.4,645.3,557.3,666.3,531.2,666.3z M578.4,424.6c0,21.7-17.6,39.3-39.3,39.3H113.8
		c-21.7,0-39.3-17.6-39.3-39.3V196.8c0-21.7,17.6-39.3,39.3-39.3h425.3c21.7,0,39.3,17.6,39.3,39.3V424.6z"/>
</g>
</svg>
