<?xml version="1.0" encoding="utf-8"?>
<!-- Generator: Adobe Illustrator 19.0.0, SVG Export Plug-In . SVG Version: 6.00 Build 0)  -->
<svg version="1.1" id="Layer_1" xmlns="http://www.w3.org/2000/svg" xmlns:xlink="http://www.w3.org/1999/xlink" x="0px" y="0px"
	 viewBox="-284.6 399.9 12.7 8.9" style="enable-background:new -284.6 399.9 12.7 8.9;" xml:space="preserve">
<style type="text/css">
	.st0{fill:#FFFFFF;}
</style>
<path class="st0" d="M-272.3,403.4c-0.3-0.7-0.9-2.9-0.9-2.9l0,0l0,0c-0.2-0.3-0.5-0.5-0.9-0.5h-9.8c-0.4,0-0.8,0.4-0.8,0.8v6.1
	c0,0.4,0.4,0.8,0.8,0.8l0.7,0c0.1,0.7,0.7,1.2,1.4,1.2c0.7,0,1.3-0.5,1.4-1.2l3.8,0c0.1,0.7,0.7,1.2,1.4,1.2c0.7,0,1.3-0.5,1.4-1.2
	l1.2,0c0.4,0,0.8-0.3,0.8-0.8v-2.3C-272,404.2-272.1,403.7-272.3,403.4z M-281.8,408.5c-0.6,0-1-0.5-1-1c0-0.6,0.5-1,1-1
	c0.6,0,1,0.5,1,1C-280.8,408.1-281.2,408.5-281.8,408.5z M-280.5,402.7c0,0.4-0.3,0.8-0.8,0.8h-1.9c-0.4,0-0.8-0.3-0.8-0.8v-1.4
	c0-0.4,0.3-0.8,0.8-0.8h1.9c0.4,0,0.8,0.3,0.8,0.8V402.7z M-280.1,401.4c0-0.4,0.3-0.8,0.8-0.8h1.9c0.4,0,0.8,0.3,0.8,0.8v1.4
	c0,0.4-0.3,0.8-0.8,0.8h-1.9c-0.4,0-0.8-0.3-0.8-0.8V401.4z M-279.1,405.3c0.4-0.2,1-0.3,1.3-0.5c0.3-0.3,0.6-0.7,1.2-0.6
	c0,0-0.3,0.2-0.3,0.3c-0.1,0.1-0.2,0.4-0.4,0.6c-0.4,0.2-1.6,0.3-2,0.5s-0.7,0.6-0.7,0.6S-279.5,405.4-279.1,405.3z M-279.6,405.5
	c0,0,0.3-0.5,0.5-0.6c0.2-0.1,0.9-0.3,1-0.4c0.2-0.1,0.2-0.2,0.2-0.2s-0.1,0.5-0.5,0.6C-278.8,405-279.2,405-279.6,405.5z
	 M-277.4,405.8c-0.6,0-1.2,0-1.6,0.2c-0.8,0.3-1.3,0.9-1.3,0.9s0.5-0.9,1.1-1.1c0.7-0.3,1.7-0.3,2.1-0.6c0.4-0.3,0.6-1,1.4-0.9
	c0,0-0.2,0.1-0.2,0.4s-0.1,1-0.4,1.1C-276.6,405.9-277,405.8-277.4,405.8z M-274.3,407.5L-274.3,407.5c0,0.6-0.5,1-1,1
	c-0.6,0-1-0.5-1-1c0-0.6,0.5-1,1-1C-274.8,406.5-274.3,406.9-274.3,407.5L-274.3,407.5z M-275.3,403.5c-0.4,0-0.7-0.3-0.7-0.7v-1.4
	c0-0.4,0.3-0.7,0.7-0.7h1.5l0.1,0.2c0.1,0.5,0.4,1.5,0.6,2.2l0.1,0.4H-275.3z"/>
</svg>
