<?xml version="1.0" encoding="utf-8"?>
<!-- Generator: Adobe Illustrator 19.0.0, SVG Export Plug-In . SVG Version: 6.00 Build 0)  -->
<svg version="1.1" id="Layer_1" xmlns="http://www.w3.org/2000/svg" xmlns:xlink="http://www.w3.org/1999/xlink" x="0px" y="0px"
	 viewBox="-293.3 414 11.1 6.6" style="enable-background:new -293.3 414 11.1 6.6;" xml:space="preserve">
<style type="text/css">
	.st0{fill:#FFFFFF;}
</style>
<g id="Margen">
</g>
<g id="Layer_1_1_">
</g>
<g>
	<path class="st0" d="M-293.3,420.6c0,0,1.2-2.1,2.7-2.7c1.7-0.7,4-0.8,5-1.5s1.4-2.3,3.4-2.2c0,0-0.5,0.3-0.6,1.1s-0.2,2.5-0.9,2.7
		c-0.6,0.2-1.5,0-2.5-0.1c-1.3-0.1-2.8,0-4,0.5C-292.2,419.3-293.3,420.6-293.3,420.6z"/>
	<path class="st0" d="M-292.7,419c0,0,1.4-2,2.3-2.3c1-0.4,2.4-0.6,3.1-1.3c0.7-0.6,1.4-1.7,2.8-1.4c0,0-0.7,0.4-0.8,0.8
		c-0.1,0.3-0.4,1.1-1,1.4c-0.9,0.5-3.9,0.7-4.7,1.3C-291.8,418.2-292.7,419-292.7,419z"/>
	<path class="st0" d="M-291.5,417.2c0,0,0.6-1.2,1.2-1.5s2.1-0.7,2.5-1c0.4-0.3,0.5-0.5,0.5-0.5s-0.1,1.1-1.2,1.4
		S-290.5,416.1-291.5,417.2z"/>
</g>
</svg>
