<?xml version="1.0" encoding="utf-8"?>
<!-- Generator: Adobe Illustrator 19.0.0, SVG Export Plug-In . SVG Version: 6.00 Build 0)  -->
<svg version="1.1" id="Layer_1" xmlns="http://www.w3.org/2000/svg" xmlns:xlink="http://www.w3.org/1999/xlink" x="0px" y="0px"
	 viewBox="0 0 1299.5 339.7" style="enable-background:new 0 0 1299.5 339.7;" xml:space="preserve">
<g id="XMLID_2_">
	<path style="opacity:0.11;fill:#FFFFFF;" d="M943.6,50.2l-257,0l9.7-12.1l67.4-8.1l-56.5-5.6L455.9,3.7l-0.2,0.7l249.1,19.9
		l-569.9,198c0.1-0.5-0.1-1-0.1-1L704.2,25.1l-10,12.5L88.9,101.7c0,0,0.1,0.5,0,0.8l604.5-64l-10,12.5l260,0
		C943.4,50.8,943.6,50.2,943.6,50.2z M949.9,50.7l349.6-40.2V9.7L949.6,50C949.6,50,949.9,50.4,949.9,50.7z M129.1,224.3L4.9,267.4
		L200.3,25.7L449.5,4.2l-0.1-0.5l-0.1-0.4L199.3,25L1.7,267.3L0,267.7l128.6-44.3C128.6,223.4,128.8,224,129.1,224.3z M690.8,155.8
		l-37-20.1L416.9,175L88.7,103.2c0,0-0.2,0.7-0.7,1.2l326.2,71.1L651.5,135L259.8,278.8l-2.9-0.9l275.6,9.4l0.6,0.8l114.7-130
		l0.2-0.1l5.5-21.3l37,20C690.5,156.3,690.8,155.8,690.8,155.8z M1119.5,250.7l-92,87.7L696.5,158.9c0,0-0.3,0.5-0.6,0.8
		l331.4,179.7l1.4,0.4l92.9-88.2C1121.5,251.5,1120.4,251.4,1119.5,250.7z M1123.1,245.3l0.4-88.5l-3.6-68.1l179.6-51.2v-1
		l-181.7,51.8l-0.4,0.1l3.6,68.5l0.1,88.2C1121.1,245,1122.3,245,1123.1,245.3z M706.5,25.3l49.7,4.9L697,37.3L706.5,25.3z
		 M645.6,157.7L534.3,286.4L261,280.2L651.2,136L645.6,157.7z"/>
	<g style="opacity:0.17;">
		<circle style="fill:#FFFFFF;" cx="452.7" cy="3.2" r="3.2"/>
		<circle style="fill:#FFFFFF;" cx="85.7" cy="102.2" r="3.2"/>
		<circle style="fill:#FFFFFF;" cx="131.7" cy="222.2" r="3.2"/>
		<circle style="fill:#FFFFFF;" cx="946.7" cy="51.2" r="3.2"/>
		<circle style="fill:#FFFFFF;" cx="1121.7" cy="248.2" r="3.2"/>
		<circle style="fill:#FFFFFF;" cx="693.7" cy="157.2" r="3.2"/>
	</g>
</g>
</svg>
