<?xml version="1.0" encoding="utf-8"?>
<!-- Generator: Adobe Illustrator 19.0.0, SVG Export Plug-In . SVG Version: 6.00 Build 0)  -->
<svg version="1.1" id="Layer_1" xmlns="http://www.w3.org/2000/svg" xmlns:xlink="http://www.w3.org/1999/xlink" x="0px" y="0px"
	 viewBox="0 0 207 248.7" style="enable-background:new 0 0 207 248.7;" xml:space="preserve">
<g id="XMLID_2_">
	<ellipse id="XMLID_13_" style="fill:#056836;" cx="106.2" cy="234" rx="100.9" ry="14.7"/>
	<g id="XMLID_9_">
		<path id="XMLID_12_" style="fill:#FFFFFF;" d="M145.6,126.5c-1.6,0-3.2,0-4.9,0c-1.6,0-3.3,0-4.9,0c-2.9-0.1-5.2,1.1-6.8,3.5
			c-0.8,1.2-1.1,2.7-1.1,4.1c0,7.1,0,33.2,0,40.3c0,4.4,3.2,7.6,7.6,7.6c10.7,0,21.4,0,32.2,0c4.3,0,7.6-3.2,7.6-7.6
			c0-1.7,0-22.5,0-24.2c0-5.2,0-10.4,0-15.6c0-0.5,0-0.9,0-1.4c-0.2-3.5-3.2-6.7-6.9-6.8c-3.3-0.1-6.6-0.1-10-0.1L145.6,126.5z"/>
		<path id="XMLID_11_" style="fill:#FFFFFF;" d="M152,106.3c4.2,0,8.3,0,12.5,0c0.4,0,0.6,0.1,0.8,0.5c3.1,9.6-5,19.3-15,18
			c-7.2-0.9-12.4-7-12.2-14.2c0-1.2,0.4-2.5,0.6-3.7c0.1-0.5,0.3-0.7,0.9-0.7C143.6,106.3,147.8,106.3,152,106.3z"/>
		<path id="XMLID_10_" style="fill:#FFFFFF;" d="M151.5,104.5c-4,0-7.9,0-11.9,0c-1.5,0-2.5-0.7-3.1-2.1c-0.4-1-0.9-2.1-1.3-3.1
			c-0.5-1.1-0.1-2,1-2.5c2.7-1.1,5.3-2.2,8-3.2c0.9-0.3,2-0.6,3-0.6c3-0.1,5.9-0.1,8.9,0c1,0,2,0.3,2.9,0.7c2.6,1,5.1,2,7.6,3
			c1.3,0.5,1.7,1.4,1.1,2.7c-0.5,1.2-1,2.4-1.6,3.6c-0.5,1-1.4,1.4-2.5,1.4C159.6,104.5,155.5,104.5,151.5,104.5z"/>
	</g>
	<path id="XMLID_8_" style="fill:#FFFFFF;" d="M21,202v17H1.2c-0.7,0-1.2-0.2-1.2,0.5v3.5c0,0.7,0.6,1,1.2,1h21.4
		c0.7,0,0.4-0.3,0.4-1v-2.2v-1.3V202H21z"/>
	<path id="XMLID_3_" style="fill:#FFFFFF;" d="M192,22.3V12c0-7-6.6-12-13.6-12H42.5C35.5,0,32,5,32,12v10.3c-10,0.6-16,7-16,14.8
		v159.6c0,8.2,6.6,14.2,14.9,14.2H35v15c0,6,3.1,11,7.1,11h17.3c4,0,7.6-5.1,7.6-11v-15h89v15c0,6,1.9,11,6,11h17.3
		c4,0,7.7-5.1,7.7-11v-15h3.5c8.2,0,15.5-6,15.5-14.2V37.1C206,29.1,199,22.6,192,22.3z M53.2,197.8c-4.4,0-7.9-3.6-7.9-7.9
		c0-4.4,3.6-7.9,7.9-7.9s7.9,3.6,7.9,7.9C61.1,194.2,57.5,197.8,53.2,197.8z M173.4,197.8c-4.4,0-7.9-3.6-7.9-7.9
		c0-4.4,3.6-7.9,7.9-7.9s7.9,3.6,7.9,7.9C181.3,194.2,177.8,197.8,173.4,197.8z M192,146.5c0,8.6-6.2,14.5-13.2,14.5H42
		c-7,0-10-5.9-10-14.5V56.4C32,47.8,35.1,40,42,40h136.8c7,0,13.2,7.8,13.2,16.4V146.5z"/>
</g>
</svg>
